# xmcd
#
# Track frame offsets:
#	150
#	16460
#	33596
#	51935
#	67201
#	87035
#	100330
#	114115
#	128583
#	141102
#	157224
#	173053
#	184215
#
# Disc length: 2694 seconds
#
# Revision: 1
# Processed by: cddbd v1.5.1PL2 Copyright (c) Steve Scherf et al.
# Submitted via: audiograbber 1.80
#
DISCID=b10a840d
DTITLE=Hugo Risan - Finally
DYEAR=1900
DGENRE=
TTITLE0=Just To See You Smile
TTITLE1=Red And Rio Grande
TTITLE2=I Miss You A Little
TTITLE3=Oh Me, Oh My, Sweet Baby
TTITLE4=Neon Moon
TTITLE5=Life Gets Away
TTITLE6=Pop A Top
TTITLE7=Silver Wings
TTITLE8=Who Needs You Baby
TTITLE9=Tips Of My Fingers
TTITLE10=Write This Down
TTITLE11=Some Day You Gotta Dance
TTITLE12=The Dance
EXTD=
EXTT0=
EXTT1=
EXTT2=
EXTT3=
EXTT4=
EXTT5=
EXTT6=
EXTT7=
EXTT8=
EXTT9=
EXTT10=
EXTT11=
EXTT12=
PLAYORDER=
